SplineFontDB: 3.0
FontName: JosefinSlab-Bold
FullName: Josefin Slab Bold
FamilyName: Josefin Slab
Weight: Bold
Copyright: Copyright (c) 2010 by Typemade. All rights reserved.
Version: 1.000
ItalicAngle: 0
UnderlinePosition: -100
UnderlineWidth: 50
Ascent: 750
Descent: 250
InvalidEm: 0
sfntRevision: 0x00010000
LayerCount: 2
Layer: 0 1 "Back" 1
Layer: 1 1 "Fore" 0
XUID: [1021 158 -1673460227 6549433]
StyleMap: 0x0040
FSType: 0
OS2Version: 3
OS2_WeightWidthSlopeOnly: 0
OS2_UseTypoMetrics: 0
CreationTime: 1297674554
ModificationTime: 1483433128
PfmFamily: 17
TTFWeight: 700
TTFWidth: 5
LineGap: 0
VLineGap: 0
Panose: 2 0 0 0 0 0 0 0 0 0
OS2TypoAscent: 750
OS2TypoAOffset: 0
OS2TypoDescent: -250
OS2TypoDOffset: 0
OS2TypoLinegap: 0
OS2WinAscent: 750
OS2WinAOffset: 0
OS2WinDescent: 250
OS2WinDOffset: 0
HheadAscent: 750
HheadAOffset: 0
HheadDescent: -250
HheadDOffset: 0
OS2SubXSize: 700
OS2SubYSize: 650
OS2SubXOff: 0
OS2SubYOff: 140
OS2SupXSize: 700
OS2SupYSize: 650
OS2SupXOff: 0
OS2SupYOff: 477
OS2StrikeYSize: 50
OS2StrikeYPos: 250
OS2CapHeight: 700
OS2XHeight: 375
OS2Vendor: '    '
OS2CodePages: 00000111.00000000
OS2UnicodeRanges: 80000027.00000000.00000000.00000000
DEI: 91125
TtTable: prep
PUSHW_1
 0
CALL
SVTCA[y-axis]
PUSHW_3
 1
 4
 2
CALL
SVTCA[x-axis]
PUSHW_3
 5
 4
 2
CALL
SVTCA[x-axis]
PUSHW_8
 5
 67
 55
 44
 31
 17
 0
 8
CALL
PUSHW_8
 6
 70
 57
 44
 31
 20
 0
 8
CALL
PUSHW_8
 7
 138
 113
 88
 63
 38
 0
 8
CALL
PUSHW_8
 8
 92
 75
 59
 42
 25
 0
 8
CALL
SVTCA[y-axis]
PUSHW_8
 1
 67
 55
 44
 31
 17
 0
 8
CALL
PUSHW_8
 2
 70
 57
 44
 31
 17
 0
 8
CALL
PUSHW_8
 3
 138
 113
 88
 63
 38
 0
 8
CALL
PUSHW_8
 4
 92
 75
 59
 42
 25
 0
 8
CALL
SVTCA[y-axis]
PUSHW_3
 9
 6
 7
CALL
PUSHW_1
 0
DUP
RCVT
RDTG
ROUND[Black]
RTG
WCVTP
PUSHW_3
 15
 13
 1
DELTAC1
PUSHW_3
 95
 13
 1
DELTAC1
PUSHW_3
 143
 13
 1
DELTAC1
PUSHW_3
 15
 13
 1
DELTAC2
PUSHW_3
 95
 13
 1
DELTAC2
PUSHW_3
 223
 13
 1
DELTAC2
PUSHW_3
 255
 13
 1
DELTAC2
PUSHW_3
 15
 13
 1
DELTAC3
PUSHW_3
 143
 13
 1
DELTAC3
PUSHW_3

StartChar: hyphen
Encoding: 45 45 0
AltUni2: 0000ad.ffffffff.0
Width: 300
Flags: W
LayerCount: 2
Fore
SplineSet
53 147 m 1,0,-1
 53 228 l 1,1,-1
 237 228 l 1,2,-1
 237 147 l 1,3,-1
 53 147 l 1,0,-1
EndSplineSet
Validated: 1
EndChar

StartChar: one
Encoding: 49 49 1
Width: 290
Flags: W
LayerCount: 2
Fore
SplineSet
23 79 m 1,0,-1
 102 79 l 1,1,-1
 102 569 l 1,2,-1
 34 569 l 1,3,-1
 34 650 l 1,4,-1
 186 650 l 1,5,-1
 186 79 l 1,6,-1
 265 79 l 1,7,-1
 265 0 l 1,8,-1
 23 0 l 1,9,-1
 23 79 l 1,0,-1
EndSplineSet
Validated: 1
EndChar

StartChar: two
Encoding: 50 50 2
Width: 519
Flags: W
LayerCount: 2
Fore
SplineSet
253 81 m 1,0,-1
 417 81 l 1,1,-1
 417 174 l 1,2,-1
 496 174 l 1,3,-1
 496 0 l 1,4,-1
 53 0 l 1,5,6
 115 62 115 62 173 120.5 c 128,-1,7
 231 179 231 179 276 233.5 c 128,-1,8
 321 288 321 288 348 339.5 c 128,-1,9
 375 391 375 391 375 438 c 0,10,11
 375 475 375 475 363 501 c 128,-1,12
 351 527 351 527 332.5 544 c 128,-1,13
 314 561 314 561 292.5 569 c 128,-1,14
 271 577 271 577 253 577 c 0,15,16
 215 577 215 577 191 564 c 128,-1,17
 167 551 167 551 153 532 c 128,-1,18
 139 513 139 513 133.5 492 c 128,-1,19
 128 471 128 471 128 455 c 0,20,21
 128 422 128 422 138 396.5 c 128,-1,22
 148 371 148 371 167 351 c 1,23,-1
 117 300 l 1,24,25
 100 311 100 311 86.5 329.5 c 128,-1,26
 73 348 73 348 63.5 369.5 c 128,-1,27
 54 391 54 391 49 413.5 c 128,-1,28
 44 436 44 436 44 455 c 0,29,30
 44 495 44 495 57.5 532 c 128,-1,31
 71 569 71 569 97.5 597 c 128,-1,32
 124 625 124 625 163 641.5 c 128,-1,33
 202 658 202 658 253 658 c 0,34,35
 299 658 299 658 337 641 c 128,-1,36
 375 624 375 624 402 595.5 c 128,-1,37
 429 567 429 567 444 529.5 c 128,-1,38
 459 492 459 492 459 450 c 0,39,40
 459 400 459 400 441.5 353.5 c 128,-1,41
 424 307 424 307 395.5 261 c 128,-1,42
 367 215 367 215 330 170.5 c 128,-1,43
 293 126 293 126 253 81 c 1,0,-1
EndSplineSet
EndChar

StartChar: A
Encoding: 65 65 3
Width: 788
Flags: W
LayerCount: 2
Fore
SplineSet
35 79 m 1,0,-1
 117 79 l 1,1,2
 186 244 186 244 255.5 405.5 c 128,-1,3
 325 567 325 567 394 732 c 1,4,5
 463 567 463 567 532.5 405.5 c 128,-1,6
 602 244 602 244 671 79 c 1,7,-1
 753 79 l 1,8,-1
 753 0 l 1,9,-1
 531 0 l 1,10,-1
 531 79 l 1,11,-1
 587 79 l 1,12,13
 566 129 566 129 545.5 178 c 128,-1,14
 525 227 525 227 504 277 c 1,15,-1
 284 277 l 1,16,-1
 200 79 l 1,17,-1
 257 79 l 1,18,-1
 257 0 l 1,19,-1
 35 0 l 1,20,-1
 35 79 l 1,0,-1
403 515 m 1,21,-1
 393 548 l 2,22,23
 392 546 392 546 391 541 c 128,-1,24
 390 536 390 536 388 530 c 0,25,26
 386 523 386 523 383 515 c 0,27,28
 370 486 370 486 359 458 c 0,29,30
 349 434 349 434 338 406 c 128,-1,31
 327 378 327 378 318 356 c 1,32,-1
 470 356 l 1,33,-1
 403 515 l 1,21,-1
EndSplineSet
Validated: 1
EndChar

StartChar: C
Encoding: 67 67 4
Width: 610
Flags: W
LayerCount: 2
Fore
SplineSet
496 546 m 1,0,-1
 496 607 l 1,1,2
 446 629 446 629 392 629 c 0,3,4
 335 629 335 629 285.5 607 c 128,-1,5
 236 585 236 585 198.5 546.5 c 128,-1,6
 161 508 161 508 139.5 457 c 128,-1,7
 118 406 118 406 118 349 c 256,8,9
 118 292 118 292 139.5 241 c 128,-1,10
 161 190 161 190 198.5 152.5 c 128,-1,11
 236 115 236 115 285.5 93 c 128,-1,12
 335 71 335 71 392 71 c 0,13,14
 466 71 466 71 529 108 c 1,15,-1
 574 42 l 1,16,17
 534 19 534 19 488.5 5.5 c 128,-1,18
 443 -8 443 -8 392 -8 c 0,19,20
 318 -8 318 -8 253 20 c 128,-1,21
 188 48 188 48 139.5 96.5 c 128,-1,22
 91 145 91 145 63 210 c 128,-1,23
 35 275 35 275 35 349 c 256,24,25
 35 423 35 423 63 488.5 c 128,-1,26
 91 554 91 554 139.5 602.5 c 128,-1,27
 188 651 188 651 253 679.5 c 128,-1,28
 318 708 318 708 392 708 c 0,29,30
 443 708 443 708 488.5 695 c 128,-1,31
 534 682 534 682 575 658 c 1,32,-1
 575 546 l 1,33,-1
 496 546 l 1,0,-1
EndSplineSet
Validated: 1
EndChar

StartChar: D
Encoding: 68 68 5
Width: 632
Flags: W
LayerCount: 2
Fore
SplineSet
35 80 m 1,0,-1
 82 80 l 1,1,-1
 82 621 l 1,2,-1
 35 621 l 1,3,-1
 35 700 l 1,4,-1
 245 700 l 2,5,6
 317 700 317 700 381 675.5 c 128,-1,7
 445 651 445 651 493 605 c 128,-1,8
 541 559 541 559 569 494.5 c 128,-1,9
 597 430 597 430 597 349 c 0,10,11
 597 290 597 290 576.5 228 c 128,-1,12
 556 166 556 166 510 115.5 c 128,-1,13
 464 65 464 65 390.5 32.5 c 128,-1,14
 317 0 317 0 211 0 c 2,15,-1
 35 0 l 1,16,-1
 35 80 l 1,0,-1
165 621 m 1,17,-1
 165 80 l 1,18,-1
 235 80 l 2,19,20
 294 80 294 80 345 99 c 128,-1,21
 396 118 396 118 433.5 153.5 c 128,-1,22
 471 189 471 189 492.5 238.5 c 128,-1,23
 514 288 514 288 514 350 c 256,24,25
 514 412 514 412 492.5 462 c 128,-1,26
 471 512 471 512 433.5 547.5 c 128,-1,27
 396 583 396 583 345 602 c 128,-1,28
 294 621 294 621 235 621 c 2,29,-1
 165 621 l 1,17,-1
EndSplineSet
Validated: 1
EndChar

StartChar: M
Encoding: 77 77 6
Width: 976
Flags: W
LayerCount: 2
Fore
SplineSet
829 700 m 1,0,-1
 941 700 l 1,1,-1
 941 621 l 1,2,-1
 854 621 l 1,3,-1
 854 79 l 1,4,-1
 941 79 l 1,5,-1
 941 0 l 1,6,-1
 699 0 l 1,7,-1
 699 79 l 1,8,-1
 771 79 l 1,9,-1
 771 470 l 2,10,11
 772 478 772 478 772.5 486 c 128,-1,12
 773 494 773 494 774 502 c 1,13,14
 766 491 766 491 758 479 c 128,-1,15
 750 467 750 467 742 456 c 0,16,17
 682 371 682 371 616.5 289.5 c 128,-1,18
 551 208 551 208 488 125 c 1,19,-1
 220 475 l 1,20,-1
 202 502 l 2,21,22
 203 494 203 494 203.5 486 c 128,-1,23
 204 478 204 478 205 470 c 2,24,-1
 205 79 l 1,25,-1
 277 79 l 1,26,-1
 277 0 l 1,27,-1
 35 0 l 1,28,-1
 35 79 l 1,29,-1
 122 79 l 1,30,-1
 122 621 l 1,31,-1
 35 621 l 1,32,-1
 35 700 l 1,33,-1
 147 700 l 1,34,35
 233 589 233 589 317.5 478.5 c 128,-1,36
 402 368 402 368 488 257 c 1,37,38
 574 368 574 368 658.5 478.5 c 128,-1,39
 743 589 743 589 829 700 c 1,0,-1
EndSplineSet
Validated: 1
EndChar

StartChar: O
Encoding: 79 79 7
Width: 786
Flags: W
LayerCount: 2
Fore
SplineSet
35 349 m 0,0,1
 35 422 35 422 63 487.5 c 128,-1,2
 91 553 91 553 139.5 602 c 128,-1,3
 188 651 188 651 253 679.5 c 128,-1,4
 318 708 318 708 392 708 c 0,5,6
 465 708 465 708 530.5 679.5 c 128,-1,7
 596 651 596 651 645 602 c 128,-1,8
 694 553 694 553 722.5 487.5 c 128,-1,9
 751 422 751 422 751 349 c 0,10,11
 751 275 751 275 722.5 210 c 128,-1,12
 694 145 694 145 645 96.5 c 128,-1,13
 596 48 596 48 530.5 20 c 128,-1,14
 465 -8 465 -8 392 -8 c 0,15,16
 318 -8 318 -8 253 20 c 128,-1,17
 188 48 188 48 139.5 96.5 c 128,-1,18
 91 145 91 145 63 210 c 128,-1,19
 35 275 35 275 35 349 c 0,0,1
118 349 m 256,20,21
 118 291 118 291 139.5 240.5 c 128,-1,22
 161 190 161 190 198.5 152.5 c 128,-1,23
 236 115 236 115 286 93 c 128,-1,24
 336 71 336 71 393 71 c 256,25,26
 450 71 450 71 500 93 c 128,-1,27
 550 115 550 115 587.5 152.5 c 128,-1,28
 625 190 625 190 646.5 240.5 c 128,-1,29
 668 291 668 291 668 349 c 256,30,31
 668 407 668 407 646.5 457.5 c 128,-1,32
 625 508 625 508 587.5 546 c 128,-1,33
 550 584 550 584 500 606 c 128,-1,34
 450 628 450 628 393 628 c 256,35,36
 336 628 336 628 286 606 c 128,-1,37
 236 584 236 584 198.5 546 c 128,-1,38
 161 508 161 508 139.5 457.5 c 128,-1,39
 118 407 118 407 118 349 c 256,20,21
EndSplineSet
Validated: 1
EndChar

StartChar: P
Encoding: 80 80 8
Width: 517
Flags: W
LayerCount: 2
Fore
SplineSet
35 79 m 1,0,-1
 80 79 l 1,1,-1
 80 621 l 1,2,-1
 35 621 l 1,3,-1
 35 700 l 1,4,-1
 245 700 l 2,5,6
 279 700 279 700 320.5 689.5 c 128,-1,7
 362 679 362 679 398 656 c 128,-1,8
 434 633 434 633 458 597 c 128,-1,9
 482 561 482 561 482 510 c 0,10,11
 482 419 482 419 428 365.5 c 128,-1,12
 374 312 374 312 272 312 c 2,13,-1
 163 312 l 1,14,-1
 163 79 l 1,15,-1
 277 79 l 1,16,-1
 277 0 l 1,17,-1
 35 0 l 1,18,-1
 35 79 l 1,0,-1
163 392 m 1,19,-1
 250 392 l 2,20,21
 294 392 294 392 322.5 403.5 c 128,-1,22
 351 415 351 415 368 432 c 128,-1,23
 385 449 385 449 392 470 c 128,-1,24
 399 491 399 491 399 510 c 0,25,26
 399 532 399 532 387.5 552 c 128,-1,27
 376 572 376 572 356.5 587.5 c 128,-1,28
 337 603 337 603 309.5 612 c 128,-1,29
 282 621 282 621 251 621 c 2,30,-1
 163 621 l 1,31,-1
 163 392 l 1,19,-1
EndSplineSet
Validated: 1
EndChar

StartChar: R
Encoding: 82 82 9
Width: 576
Flags: W
LayerCount: 2
Fore
SplineSet
35 79 m 1,0,-1
 80 79 l 1,1,-1
 80 621 l 1,2,-1
 35 621 l 1,3,-1
 35 700 l 1,4,-1
 245 700 l 2,5,6
 279 700 279 700 320.5 689.5 c 128,-1,7
 362 679 362 679 398 656 c 128,-1,8
 434 633 434 633 458 597 c 128,-1,9
 482 561 482 561 482 510 c 0,10,11
 482 435 482 435 444.5 384.5 c 128,-1,12
 407 334 407 334 335 318 c 1,13,-1
 447 79 l 1,14,-1
 541 79 l 1,15,-1
 541 0 l 1,16,-1
 395 0 l 1,17,-1
 248 312 l 1,18,-1
 205 312 l 1,19,-1
 163 312 l 1,20,-1
 163 79 l 1,21,-1
 277 79 l 1,22,-1
 277 0 l 1,23,-1
 35 0 l 1,24,-1
 35 79 l 1,0,-1
163 392 m 1,25,-1
 250 392 l 2,26,27
 294 392 294 392 322.5 403.5 c 128,-1,28
 351 415 351 415 368 432 c 128,-1,29
 385 449 385 449 392 470 c 128,-1,30
 399 491 399 491 399 510 c 0,31,32
 399 532 399 532 387.5 552 c 128,-1,33
 376 572 376 572 356.5 587.5 c 128,-1,34
 337 603 337 603 309.5 612 c 128,-1,35
 282 621 282 621 251 621 c 2,36,-1
 163 621 l 1,37,-1
 163 392 l 1,25,-1
EndSplineSet
Validated: 1
EndChar

StartChar: S
Encoding: 83 83 10
Width: 478
Flags: W
LayerCount: 2
Fore
SplineSet
21 93 m 1,0,-1
 21 209 l 1,1,-1
 100 209 l 1,2,-1
 100 120 l 1,3,4
 126 100 126 100 162 85.5 c 128,-1,5
 198 71 198 71 243 71 c 0,6,7
 269 71 269 71 293 78.5 c 128,-1,8
 317 86 317 86 335.5 100.5 c 128,-1,9
 354 115 354 115 365 137 c 128,-1,10
 376 159 376 159 376 188 c 0,11,12
 376 240 376 240 352 268 c 128,-1,13
 328 296 328 296 292 311.5 c 128,-1,14
 256 327 256 327 214 338 c 128,-1,15
 172 349 172 349 135.5 368 c 128,-1,16
 99 387 99 387 74.5 421 c 128,-1,17
 50 455 50 455 49 517 c 0,18,19
 48 550 48 550 58 583 c 128,-1,20
 68 616 68 616 91 643 c 128,-1,21
 114 670 114 670 152 687 c 128,-1,22
 190 704 190 704 245 704 c 0,23,24
 263 704 263 704 284 702 c 128,-1,25
 305 700 305 700 328 694 c 128,-1,26
 351 688 351 688 375.5 676 c 128,-1,27
 400 664 400 664 424 644 c 1,28,-1
 424 546 l 1,29,-1
 345 546 l 1,30,-1
 345 605 l 1,31,32
 326 613 326 613 301 619 c 128,-1,33
 276 625 276 625 246 625 c 0,34,35
 188 625 188 625 160 592 c 128,-1,36
 132 559 132 559 132 514 c 0,37,38
 132 484 132 484 146 465.5 c 128,-1,39
 160 447 160 447 183 434.5 c 128,-1,40
 206 422 206 422 235.5 413 c 128,-1,41
 265 404 265 404 295.5 393.5 c 128,-1,42
 326 383 326 383 355.5 368.5 c 128,-1,43
 385 354 385 354 408 330.5 c 128,-1,44
 431 307 431 307 445 272.5 c 128,-1,45
 459 238 459 238 459 187 c 0,46,47
 459 142 459 142 442.5 106 c 128,-1,48
 426 70 426 70 397.5 44.5 c 128,-1,49
 369 19 369 19 331 5.5 c 128,-1,50
 293 -8 293 -8 251 -8 c 0,51,52
 213 -8 213 -8 177 0.5 c 128,-1,53
 141 9 141 9 111 23 c 128,-1,54
 81 37 81 37 57.5 55 c 128,-1,55
 34 73 34 73 21 93 c 1,0,-1
EndSplineSet
Validated: 33
EndChar

StartChar: T
Encoding: 84 84 11
Width: 623
Flags: W
LayerCount: 2
Fore
SplineSet
185 79 m 1,0,-1
 271 79 l 1,1,-1
 271 621 l 1,2,-1
 114 621 l 1,3,-1
 114 546 l 1,4,-1
 35 546 l 1,5,-1
 35 700 l 1,6,-1
 588 700 l 1,7,-1
 588 546 l 1,8,-1
 509 546 l 1,9,-1
 509 621 l 1,10,-1
 354 621 l 1,11,-1
 354 79 l 1,12,-1
 427 79 l 1,13,-1
 427 0 l 1,14,-1
 185 0 l 1,15,-1
 185 79 l 1,0,-1
EndSplineSet
Validated: 1
EndChar

StartChar: U
Encoding: 85 85 12
Width: 729
Flags: W
LayerCount: 2
Fore
SplineSet
35 700 m 1,0,-1
 277 700 l 1,1,-1
 277 621 l 1,2,-1
 195 621 l 1,3,-1
 195 229 l 2,4,5
 195 191 195 191 207.5 161.5 c 128,-1,6
 220 132 220 132 242.5 112 c 128,-1,7
 265 92 265 92 296 81.5 c 128,-1,8
 327 71 327 71 364 71 c 256,9,10
 401 71 401 71 432 81.5 c 128,-1,11
 463 92 463 92 485.5 112 c 128,-1,12
 508 132 508 132 521 161.5 c 128,-1,13
 534 191 534 191 534 229 c 2,14,-1
 534 621 l 1,15,-1
 452 621 l 1,16,-1
 452 700 l 1,17,-1
 694 700 l 1,18,-1
 694 621 l 1,19,-1
 617 621 l 1,20,-1
 617 226 l 2,21,22
 617 169 617 169 597.5 125 c 128,-1,23
 578 81 578 81 544 51.5 c 128,-1,24
 510 22 510 22 464 7 c 128,-1,25
 418 -8 418 -8 364 -8 c 256,26,27
 310 -8 310 -8 264 7 c 128,-1,28
 218 22 218 22 184 51.5 c 128,-1,29
 150 81 150 81 131 125 c 128,-1,30
 112 169 112 169 112 226 c 2,31,-1
 112 621 l 1,32,-1
 35 621 l 1,33,-1
 35 700 l 1,0,-1
EndSplineSet
Validated: 1
EndChar

StartChar: a
Encoding: 97 97 13
Width: 547
Flags: W
LayerCount: 2
Fore
SplineSet
35 187 m 0,0,1
 35 226 35 226 50.5 262 c 128,-1,2
 66 298 66 298 93 325 c 128,-1,3
 120 352 120 352 157 368 c 128,-1,4
 194 384 194 384 236 384 c 0,5,6
 263 384 263 384 286 376 c 128,-1,7
 309 368 309 368 326 358.5 c 128,-1,8
 343 349 343 349 353 340 c 128,-1,9
 363 331 363 331 363 328 c 1,10,11
 363 339 363 339 365 351 c 128,-1,12
 367 363 367 363 367 375 c 1,13,-1
 436 375 l 1,14,-1
 436 79 l 1,15,-1
 512 79 l 1,16,-1
 512 0 l 1,17,-1
 363 0 l 1,18,-1
 363 20 l 1,19,-1
 363 40 l 2,20,21
 362 37 362 37 353 29 c 128,-1,22
 344 21 344 21 327.5 12.5 c 128,-1,23
 311 4 311 4 288 -2.5 c 128,-1,24
 265 -9 265 -9 236 -9 c 0,25,26
 194 -9 194 -9 157 6.5 c 128,-1,27
 120 22 120 22 93 49 c 128,-1,28
 66 76 66 76 50.5 111.5 c 128,-1,29
 35 147 35 147 35 187 c 0,0,1
119 188 m 0,30,31
 119 139 119 139 151.5 105.5 c 128,-1,32
 184 72 184 72 236 72 c 256,33,34
 288 72 288 72 320.5 105.5 c 128,-1,35
 353 139 353 139 353 188 c 0,36,37
 353 238 353 238 320.5 270.5 c 128,-1,38
 288 303 288 303 236 303 c 256,39,40
 184 303 184 303 151.5 270.5 c 128,-1,41
 119 238 119 238 119 188 c 0,30,31
EndSplineSet
Validated: 1
EndChar

StartChar: b
Encoding: 98 98 14
Width: 547
Flags: W
LayerCount: 2
Fore
SplineSet
35 79 m 1,0,-1
 111 79 l 1,1,-1
 111 671 l 1,2,-1
 45 671 l 1,3,-1
 45 750 l 1,4,-1
 194 750 l 1,5,-1
 194 362 l 2,6,7
 192 354 192 354 189 346.5 c 128,-1,8
 186 339 186 339 184 331 c 1,9,10
 185 334 185 334 195.5 343 c 128,-1,11
 206 352 206 352 223 361 c 128,-1,12
 240 370 240 370 262.5 377 c 128,-1,13
 285 384 285 384 311 384 c 0,14,15
 353 384 353 384 390 368.5 c 128,-1,16
 427 353 427 353 454 326 c 128,-1,17
 481 299 481 299 496.5 263.5 c 128,-1,18
 512 228 512 228 512 188 c 256,19,20
 512 148 512 148 496.5 112 c 128,-1,21
 481 76 481 76 454 49 c 128,-1,22
 427 22 427 22 390 6.5 c 128,-1,23
 353 -9 353 -9 311 -9 c 0,24,25
 282 -9 282 -9 259 -2.5 c 128,-1,26
 236 4 236 4 219.5 12.5 c 128,-1,27
 203 21 203 21 194 29 c 128,-1,28
 185 37 185 37 184 40 c 2,29,-1
 184 20 l 1,30,-1
 184 0 l 1,31,-1
 35 0 l 1,32,-1
 35 79 l 1,0,-1
428 188 m 0,33,34
 428 238 428 238 395.5 270.5 c 128,-1,35
 363 303 363 303 311 303 c 256,36,37
 259 303 259 303 226.5 270.5 c 128,-1,38
 194 238 194 238 194 188 c 0,39,40
 194 139 194 139 226.5 105.5 c 128,-1,41
 259 72 259 72 311 72 c 256,42,43
 363 72 363 72 395.5 105.5 c 128,-1,44
 428 139 428 139 428 188 c 0,33,34
EndSplineSet
Validated: 1
EndChar

StartChar: c
Encoding: 99 99 15
Width: 397
Flags: W
LayerCount: 2
Fore
SplineSet
360 34 m 1,0,1
 334 14 334 14 302.5 2.5 c 128,-1,2
 271 -9 271 -9 235 -9 c 0,3,4
 193 -9 193 -9 156.5 6.5 c 128,-1,5
 120 22 120 22 93 49 c 128,-1,6
 66 76 66 76 50.5 111.5 c 128,-1,7
 35 147 35 147 35 188 c 0,8,9
 35 228 35 228 50.5 264 c 128,-1,10
 66 300 66 300 93 326.5 c 128,-1,11
 120 353 120 353 156.5 368.5 c 128,-1,12
 193 384 193 384 235 384 c 0,13,14
 272 384 272 384 304 372.5 c 128,-1,15
 336 361 336 361 362 341 c 1,16,-1
 362 225 l 1,17,-1
 288 225 l 1,18,-1
 288 292 l 1,19,20
 263 303 263 303 235 303 c 0,21,22
 183 303 183 303 150.5 270.5 c 128,-1,23
 118 238 118 238 118 188 c 0,24,25
 118 139 118 139 150.5 105.5 c 128,-1,26
 183 72 183 72 235 72 c 0,27,28
 279 72 279 72 310 97 c 1,29,-1
 360 34 l 1,0,1
EndSplineSet
Validated: 1
EndChar

StartChar: e
Encoding: 101 101 16
Width: 450
Flags: W
LayerCount: 2
Fore
SplineSet
235 303 m 0,0,1
 184 303 184 303 152 272.5 c 128,-1,2
 120 242 120 242 118 196 c 1,3,4
 165 213 165 213 211.5 230.5 c 128,-1,5
 258 248 258 248 305 265 c 1,6,7
 291 282 291 282 273.5 292.5 c 128,-1,8
 256 303 256 303 235 303 c 0,0,1
411 218 m 1,9,10
 343 193 343 193 275.5 168 c 128,-1,11
 208 143 208 143 140 118 c 1,12,13
 155 97 155 97 179.5 84.5 c 128,-1,14
 204 72 204 72 235 72 c 0,15,16
 281 72 281 72 311 104 c 1,17,-1
 362 44 l 1,18,19
 337 19 337 19 305 5 c 128,-1,20
 273 -9 273 -9 235 -9 c 0,21,22
 193 -9 193 -9 156.5 6.5 c 128,-1,23
 120 22 120 22 93 49 c 128,-1,24
 66 76 66 76 50.5 111.5 c 128,-1,25
 35 147 35 147 35 188 c 0,26,27
 35 228 35 228 50.5 264 c 128,-1,28
 66 300 66 300 93 326.5 c 128,-1,29
 120 353 120 353 156.5 368.5 c 128,-1,30
 193 384 193 384 235 384 c 0,31,32
 266 384 266 384 294.5 371.5 c 128,-1,33
 323 359 323 359 345.5 337 c 128,-1,34
 368 315 368 315 385 284.5 c 128,-1,35
 402 254 402 254 411 218 c 1,9,10
EndSplineSet
Validated: 1
EndChar

StartChar: f
Encoding: 102 102 17
Width: 336
Flags: W
LayerCount: 2
Fore
SplineSet
35 79 m 1,0,-1
 96 79 l 1,1,-1
 96 294 l 1,2,-1
 35 294 l 1,3,-1
 35 375 l 1,4,-1
 95 375 l 1,5,-1
 95 517 l 2,6,7
 95 573 95 573 113.5 616 c 128,-1,8
 132 659 132 659 164 688.5 c 128,-1,9
 196 718 196 718 240.5 733.5 c 128,-1,10
 285 749 285 749 336 751 c 1,11,-1
 336 672 l 1,12,13
 267 668 267 668 222.5 628 c 128,-1,14
 178 588 178 588 178 514 c 2,15,-1
 178 375 l 1,16,-1
 296 375 l 1,17,-1
 296 294 l 1,18,-1
 178 294 l 1,19,-1
 178 79 l 1,20,-1
 257 79 l 1,21,-1
 257 0 l 1,22,-1
 35 0 l 1,23,-1
 35 79 l 1,0,-1
EndSplineSet
Validated: 1
EndChar

StartChar: g
Encoding: 103 103 18
Width: 547
Flags: W
LayerCount: 2
Fore
SplineSet
367 375 m 1,0,-1
 512 375 l 1,1,-1
 512 296 l 1,2,-1
 436 296 l 1,3,-1
 436 -60 l 2,4,5
 436 -100 436 -100 420.5 -134.5 c 128,-1,6
 405 -169 405 -169 378 -194.5 c 128,-1,7
 351 -220 351 -220 315 -235 c 128,-1,8
 279 -250 279 -250 237 -250 c 0,9,10
 192 -250 192 -250 150 -230.5 c 128,-1,11
 108 -211 108 -211 78 -190 c 1,12,-1
 133 -122 l 1,13,14
 153 -137 153 -137 179.5 -150.5 c 128,-1,15
 206 -164 206 -164 235 -164 c 0,16,17
 261 -164 261 -164 282.5 -155 c 128,-1,18
 304 -146 304 -146 320 -130.5 c 128,-1,19
 336 -115 336 -115 344.5 -93.5 c 128,-1,20
 353 -72 353 -72 353 -47 c 2,21,-1
 353 20 l 2,22,23
 355 24 355 24 357 28.5 c 128,-1,24
 359 33 359 33 361 38 c 1,25,26
 358 33 358 33 348 25.5 c 128,-1,27
 338 18 338 18 322 10.5 c 128,-1,28
 306 3 306 3 284.5 -2.5 c 128,-1,29
 263 -8 263 -8 236 -8 c 0,30,31
 194 -8 194 -8 157 7.5 c 128,-1,32
 120 23 120 23 93 49.5 c 128,-1,33
 66 76 66 76 50.5 111.5 c 128,-1,34
 35 147 35 147 35 187 c 0,35,36
 35 226 35 226 50.5 262 c 128,-1,37
 66 298 66 298 93 325 c 128,-1,38
 120 352 120 352 157 368 c 128,-1,39
 194 384 194 384 236 384 c 0,40,41
 263 384 263 384 286 376 c 128,-1,42
 309 368 309 368 326 358.5 c 128,-1,43
 343 349 343 349 353 340 c 128,-1,44
 363 331 363 331 363 328 c 1,45,46
 363 339 363 339 365 351 c 128,-1,47
 367 363 367 363 367 375 c 1,0,-1
119 188 m 0,48,49
 119 139 119 139 151.5 105.5 c 128,-1,50
 184 72 184 72 236 72 c 256,51,52
 288 72 288 72 320.5 105.5 c 128,-1,53
 353 139 353 139 353 188 c 0,54,55
 353 238 353 238 320.5 270.5 c 128,-1,56
 288 303 288 303 236 303 c 256,57,58
 184 303 184 303 151.5 270.5 c 128,-1,59
 119 238 119 238 119 188 c 0,48,49
EndSplineSet
Validated: 1
EndChar

StartChar: h
Encoding: 104 104 19
Width: 580
Flags: W
LayerCount: 2
Fore
SplineSet
323 79 m 1,0,-1
 400 79 l 1,1,-1
 400 234 l 2,2,3
 398 261 398 261 380.5 280.5 c 128,-1,4
 363 300 363 300 325 302 c 0,5,6
 299 302 299 302 275.5 293 c 128,-1,7
 252 284 252 284 234 268 c 128,-1,8
 216 252 216 252 205 230 c 128,-1,9
 194 208 194 208 194 182 c 2,10,-1
 194 79 l 1,11,-1
 257 79 l 1,12,-1
 257 0 l 1,13,-1
 35 0 l 1,14,-1
 35 79 l 1,15,-1
 111 79 l 1,16,-1
 111 671 l 1,17,-1
 35 671 l 1,18,-1
 35 750 l 1,19,-1
 194 750 l 1,20,-1
 194 324 l 1,21,-1
 191 279 l 1,22,23
 213 328 213 328 255 354.5 c 128,-1,24
 297 381 297 381 354 384 c 0,25,26
 413 384 413 384 447 353 c 128,-1,27
 481 322 481 322 483 272 c 2,28,-1
 483 79 l 1,29,-1
 545 79 l 1,30,-1
 545 0 l 1,31,-1
 323 0 l 1,32,-1
 323 79 l 1,0,-1
EndSplineSet
Validated: 1
EndChar

StartChar: i
Encoding: 105 105 20
Width: 292
Flags: W
LayerCount: 2
Fore
SplineSet
35 79 m 1,0,-1
 105 79 l 1,1,-1
 105 296 l 1,2,-1
 35 296 l 1,3,-1
 35 375 l 1,4,-1
 188 375 l 1,5,-1
 188 79 l 1,6,-1
 257 79 l 1,7,-1
 257 0 l 1,8,-1
 35 0 l 1,9,-1
 35 79 l 1,0,-1
96 520 m 256,10,11
 96 543 96 543 112 558 c 128,-1,12
 128 573 128 573 148 573 c 0,13,14
 167 573 167 573 183 558 c 128,-1,15
 199 543 199 543 199 520 c 256,16,17
 199 497 199 497 183 482.5 c 128,-1,18
 167 468 167 468 148 468 c 0,19,20
 128 468 128 468 112 482.5 c 128,-1,21
 96 497 96 497 96 520 c 256,10,11
EndSplineSet
Validated: 1
EndChar

StartChar: l
Encoding: 108 108 21
Width: 292
Flags: W
LayerCount: 2
Fore
SplineSet
35 79 m 1,0,-1
 111 79 l 1,1,-1
 111 671 l 1,2,-1
 45 671 l 1,3,-1
 45 750 l 1,4,-1
 194 750 l 1,5,-1
 194 79 l 1,6,-1
 257 79 l 1,7,-1
 257 0 l 1,8,-1
 35 0 l 1,9,-1
 35 79 l 1,0,-1
EndSplineSet
Validated: 1
EndChar

StartChar: m
Encoding: 109 109 22
Width: 870
Flags: W
LayerCount: 2
Fore
SplineSet
613 79 m 1,0,-1
 689 79 l 1,1,-1
 689 234 l 2,2,3
 687 261 687 261 669.5 280.5 c 128,-1,4
 652 300 652 300 614 302 c 0,5,6
 588 302 588 302 564.5 293 c 128,-1,7
 541 284 541 284 523 268 c 128,-1,8
 505 252 505 252 494 230 c 128,-1,9
 483 208 483 208 483 182 c 2,10,-1
 483 79 l 1,11,-1
 546 79 l 1,12,-1
 546 0 l 1,13,-1
 324 0 l 1,14,-1
 324 79 l 1,15,-1
 400 79 l 1,16,-1
 400 234 l 2,17,18
 398 261 398 261 380.5 280.5 c 128,-1,19
 363 300 363 300 325 302 c 0,20,21
 299 302 299 302 275.5 293 c 128,-1,22
 252 284 252 284 234 268 c 128,-1,23
 216 252 216 252 205 230 c 128,-1,24
 194 208 194 208 194 182 c 2,25,-1
 194 79 l 1,26,-1
 257 79 l 1,27,-1
 257 0 l 1,28,-1
 35 0 l 1,29,-1
 35 79 l 1,30,-1
 111 79 l 1,31,-1
 111 296 l 1,32,-1
 45 296 l 1,33,-1
 45 375 l 1,34,-1
 184 375 l 1,35,-1
 184 366 l 2,36,37
 186 342 186 342 187.5 322.5 c 128,-1,38
 189 303 189 303 191 279 c 1,39,40
 212 327 212 327 254.5 354.5 c 128,-1,41
 297 382 297 382 354 384 c 0,42,43
 409 384 409 384 442.5 356.5 c 128,-1,44
 476 329 476 329 482 284 c 1,45,46
 504 330 504 330 546 356 c 128,-1,47
 588 382 588 382 643 384 c 0,48,49
 702 384 702 384 736 353 c 128,-1,50
 770 322 770 322 772 272 c 2,51,-1
 772 79 l 1,52,-1
 835 79 l 1,53,-1
 835 0 l 1,54,-1
 613 0 l 1,55,-1
 613 79 l 1,0,-1
EndSplineSet
Validated: 1
EndChar

StartChar: n
Encoding: 110 110 23
Width: 580
Flags: W
LayerCount: 2
Fore
SplineSet
323 79 m 1,0,-1
 400 79 l 1,1,-1
 400 234 l 2,2,3
 398 261 398 261 380.5 280.5 c 128,-1,4
 363 300 363 300 325 302 c 0,5,6
 299 302 299 302 275.5 293 c 128,-1,7
 252 284 252 284 234 268 c 128,-1,8
 216 252 216 252 205 230 c 128,-1,9
 194 208 194 208 194 182 c 2,10,-1
 194 79 l 1,11,-1
 257 79 l 1,12,-1
 257 0 l 1,13,-1
 35 0 l 1,14,-1
 35 79 l 1,15,-1
 111 79 l 1,16,-1
 111 296 l 1,17,-1
 45 296 l 1,18,-1
 45 375 l 1,19,-1
 184 375 l 1,20,-1
 184 366 l 2,21,22
 186 342 186 342 187.5 322.5 c 128,-1,23
 189 303 189 303 191 279 c 1,24,25
 211 327 211 327 255.5 355.5 c 128,-1,26
 300 384 300 384 354 384 c 0,27,28
 413 384 413 384 447 353 c 128,-1,29
 481 322 481 322 483 272 c 2,30,-1
 483 79 l 1,31,-1
 545 79 l 1,32,-1
 545 0 l 1,33,-1
 323 0 l 1,34,-1
 323 79 l 1,0,-1
EndSplineSet
Validated: 1
EndChar

StartChar: o
Encoding: 111 111 24
Width: 471
Flags: W
LayerCount: 2
Fore
SplineSet
35 188 m 0,0,1
 35 228 35 228 50.5 264 c 128,-1,2
 66 300 66 300 93 326.5 c 128,-1,3
 120 353 120 353 156.5 368.5 c 128,-1,4
 193 384 193 384 235 384 c 256,5,6
 277 384 277 384 314 368.5 c 128,-1,7
 351 353 351 353 378 326.5 c 128,-1,8
 405 300 405 300 420.5 264 c 128,-1,9
 436 228 436 228 436 188 c 0,10,11
 436 147 436 147 420.5 111.5 c 128,-1,12
 405 76 405 76 378 49 c 128,-1,13
 351 22 351 22 314 6.5 c 128,-1,14
 277 -9 277 -9 235 -9 c 256,15,16
 193 -9 193 -9 156.5 6.5 c 128,-1,17
 120 22 120 22 93 49 c 128,-1,18
 66 76 66 76 50.5 111.5 c 128,-1,19
 35 147 35 147 35 188 c 0,0,1
118 187 m 256,20,21
 118 163 118 163 127 142 c 128,-1,22
 136 121 136 121 151.5 105.5 c 128,-1,23
 167 90 167 90 188 81 c 128,-1,24
 209 72 209 72 233 72 c 256,25,26
 257 72 257 72 278 81 c 128,-1,27
 299 90 299 90 315 105.5 c 128,-1,28
 331 121 331 121 340 142 c 128,-1,29
 349 163 349 163 349 187 c 256,30,31
 349 211 349 211 340 232 c 128,-1,32
 331 253 331 253 315 269 c 128,-1,33
 299 285 299 285 278 294 c 128,-1,34
 257 303 257 303 233 303 c 256,35,36
 209 303 209 303 188 294 c 128,-1,37
 167 285 167 285 151.5 269 c 128,-1,38
 136 253 136 253 127 232 c 128,-1,39
 118 211 118 211 118 187 c 256,20,21
EndSplineSet
Validated: 1
EndChar

StartChar: p
Encoding: 112 112 25
Width: 548
Flags: W
LayerCount: 2
Fore
SplineSet
45 -171 m 1,0,-1
 112 -171 l 1,1,-1
 112 296 l 1,2,-1
 35 296 l 1,3,-1
 35 375 l 1,4,-1
 181 375 l 1,5,6
 181 364 181 364 182 351.5 c 128,-1,7
 183 339 183 339 185 328 c 1,8,9
 186 331 186 331 196.5 340.5 c 128,-1,10
 207 350 207 350 224 359.5 c 128,-1,11
 241 369 241 369 263.5 376.5 c 128,-1,12
 286 384 286 384 312 384 c 0,13,14
 354 384 354 384 391 368.5 c 128,-1,15
 428 353 428 353 455 326 c 128,-1,16
 482 299 482 299 497.5 263.5 c 128,-1,17
 513 228 513 228 513 188 c 256,18,19
 513 148 513 148 497.5 112 c 128,-1,20
 482 76 482 76 455 49 c 128,-1,21
 428 22 428 22 391 6.5 c 128,-1,22
 354 -9 354 -9 312 -9 c 0,23,24
 284 -9 284 -9 262 -3 c 128,-1,25
 240 3 240 3 224 11 c 128,-1,26
 208 19 208 19 198.5 26.5 c 128,-1,27
 189 34 189 34 186 38 c 1,28,29
 188 33 188 33 190.5 28.5 c 128,-1,30
 193 24 193 24 195 19 c 2,31,-1
 195 -171 l 1,32,-1
 267 -171 l 1,33,-1
 267 -250 l 1,34,-1
 45 -250 l 1,35,-1
 45 -171 l 1,0,-1
429 188 m 0,36,37
 429 238 429 238 396.5 270.5 c 128,-1,38
 364 303 364 303 312 303 c 256,39,40
 260 303 260 303 227.5 270.5 c 128,-1,41
 195 238 195 238 195 188 c 0,42,43
 195 139 195 139 227.5 105.5 c 128,-1,44
 260 72 260 72 312 72 c 256,45,46
 364 72 364 72 396.5 105.5 c 128,-1,47
 429 139 429 139 429 188 c 0,36,37
EndSplineSet
Validated: 1
EndChar

StartChar: r
Encoding: 114 114 26
Width: 370
Flags: W
LayerCount: 2
Fore
SplineSet
35 79 m 1,0,-1
 111 79 l 1,1,-1
 111 296 l 1,2,-1
 45 296 l 1,3,-1
 45 375 l 1,4,-1
 184 375 l 1,5,-1
 184 366 l 2,6,7
 186 342 186 342 187.5 322.5 c 128,-1,8
 189 303 189 303 191 279 c 1,9,10
 203 304 203 304 221.5 323.5 c 128,-1,11
 240 343 240 343 260.5 356.5 c 128,-1,12
 281 370 281 370 300.5 377 c 128,-1,13
 320 384 320 384 335 384 c 1,14,-1
 329 302 l 1,15,16
 268 302 268 302 231 268 c 128,-1,17
 194 234 194 234 194 182 c 2,18,-1
 194 79 l 1,19,-1
 257 79 l 1,20,-1
 257 0 l 1,21,-1
 35 0 l 1,22,-1
 35 79 l 1,0,-1
EndSplineSet
Validated: 1
EndChar

StartChar: s
Encoding: 115 115 27
Width: 332
Flags: W
LayerCount: 2
Fore
SplineSet
121 120 m 1,0,-1
 121 81 l 1,1,2
 133 76 133 76 144.5 74.5 c 128,-1,3
 156 73 156 73 173 73 c 0,4,5
 174 73 174 73 180.5 73.5 c 128,-1,6
 187 74 187 74 195 77.5 c 128,-1,7
 203 81 203 81 209.5 88 c 128,-1,8
 216 95 216 95 217 109 c 0,9,10
 218 127 218 127 207 136.5 c 128,-1,11
 196 146 196 146 178.5 152.5 c 128,-1,12
 161 159 161 159 140 165.5 c 128,-1,13
 119 172 119 172 100.5 183.5 c 128,-1,14
 82 195 82 195 70 216 c 128,-1,15
 58 237 58 237 58 272 c 0,16,17
 58 303 58 303 70 324 c 128,-1,18
 82 345 82 345 100 358.5 c 128,-1,19
 118 372 118 372 139 378 c 128,-1,20
 160 384 160 384 177 384 c 0,21,22
 187 384 187 384 201.5 382 c 128,-1,23
 216 380 216 380 231 375 c 128,-1,24
 246 370 246 370 260.5 362 c 128,-1,25
 275 354 275 354 286 342 c 1,26,-1
 286 255 l 1,27,-1
 212 255 l 1,28,-1
 212 298 l 1,29,30
 197 303 197 303 182 303 c 0,31,32
 160 303 160 303 150 293.5 c 128,-1,33
 140 284 140 284 142 268 c 0,34,35
 144 256 144 256 157 248.5 c 128,-1,36
 170 241 170 241 187.5 234 c 128,-1,37
 205 227 205 227 225 218 c 128,-1,38
 245 209 245 209 262 195.5 c 128,-1,39
 279 182 279 182 290 161.5 c 128,-1,40
 301 141 301 141 301 110 c 0,41,42
 301 96 301 96 295.5 76 c 128,-1,43
 290 56 290 56 276 37 c 128,-1,44
 262 18 262 18 237 5 c 128,-1,45
 212 -8 212 -8 172 -8 c 0,46,47
 135 -8 135 -8 101 1.5 c 128,-1,48
 67 11 67 11 47 33 c 1,49,-1
 47 120 l 1,50,-1
 121 120 l 1,0,-1
EndSplineSet
Validated: 1
EndChar

StartChar: t
Encoding: 116 116 28
Width: 335
Flags: W
LayerCount: 2
Fore
SplineSet
119 619 m 1,0,-1
 202 619 l 1,1,-1
 202 375 l 1,2,-1
 300 375 l 1,3,-1
 300 294 l 1,4,-1
 202 294 l 1,5,-1
 202 79 l 1,6,-1
 277 79 l 1,7,-1
 277 0 l 1,8,-1
 119 0 l 1,9,-1
 119 294 l 1,10,-1
 35 294 l 1,11,-1
 35 375 l 1,12,-1
 119 375 l 1,13,-1
 119 619 l 1,0,-1
EndSplineSet
Validated: 1
EndChar

StartChar: u
Encoding: 117 117 29
Width: 570
Flags: W
LayerCount: 2
Fore
SplineSet
35 375 m 1,0,-1
 184 375 l 1,1,-1
 184 141 l 2,2,3
 186 114 186 114 203.5 94.5 c 128,-1,4
 221 75 221 75 259 73 c 0,5,6
 285 73 285 73 308.5 82 c 128,-1,7
 332 91 332 91 350 107 c 128,-1,8
 368 123 368 123 379 145 c 128,-1,9
 390 167 390 167 390 193 c 2,10,-1
 390 296 l 1,11,-1
 324 296 l 1,12,-1
 324 375 l 1,13,-1
 473 375 l 1,14,-1
 473 70 l 1,15,-1
 535 70 l 1,16,-1
 535 0 l 1,17,-1
 390 0 l 1,18,-1
 390 51 l 1,19,-1
 393 96 l 1,20,21
 373 48 373 48 328.5 19.5 c 128,-1,22
 284 -9 284 -9 230 -9 c 0,23,24
 171 -9 171 -9 137 22 c 128,-1,25
 103 53 103 53 101 103 c 2,26,-1
 101 296 l 1,27,-1
 35 296 l 1,28,-1
 35 375 l 1,0,-1
EndSplineSet
Validated: 1
EndChar

StartChar: v
Encoding: 118 118 30
Width: 584
Flags: W
LayerCount: 2
Fore
SplineSet
35 375 m 1,0,-1
 257 375 l 1,1,-1
 257 296 l 1,2,-1
 205 296 l 1,3,4
 231 252 231 252 255 208 c 128,-1,5
 279 164 279 164 293 120 c 1,6,7
 307 164 307 164 330.5 208 c 128,-1,8
 354 252 354 252 380 296 c 1,9,-1
 320 296 l 1,10,-1
 320 375 l 1,11,-1
 549 375 l 1,12,-1
 549 296 l 1,13,-1
 466 296 l 1,14,15
 423 215 423 215 379.5 136 c 128,-1,16
 336 57 336 57 293 -23 c 1,17,18
 249 57 249 57 206 136.5 c 128,-1,19
 163 216 163 216 119 296 c 1,20,-1
 35 296 l 1,21,-1
 35 375 l 1,0,-1
EndSplineSet
Validated: 1
EndChar

StartChar: y
Encoding: 121 121 31
Width: 617
Flags: W
LayerCount: 2
Fore
SplineSet
92 -171 m 1,0,-1
 182 -171 l 1,1,2
 203 -128 203 -128 224.5 -85 c 128,-1,3
 246 -42 246 -42 268 0 c 1,4,5
 230 75 230 75 193.5 148 c 128,-1,6
 157 221 157 221 119 296 c 1,7,-1
 35 296 l 1,8,-1
 35 375 l 1,9,-1
 257 375 l 1,10,-1
 257 296 l 1,11,-1
 204 296 l 1,12,13
 233 241 233 241 262 185.5 c 128,-1,14
 291 130 291 130 310 74 c 1,15,16
 329 130 329 130 357.5 185.5 c 128,-1,17
 386 241 386 241 415 296 c 1,18,-1
 353 296 l 1,19,-1
 353 375 l 1,20,-1
 582 375 l 1,21,-1
 582 296 l 1,22,-1
 500 296 l 1,23,24
 441 178 441 178 382.5 62.5 c 128,-1,25
 324 -53 324 -53 265 -171 c 1,26,-1
 314 -171 l 1,27,-1
 314 -250 l 1,28,-1
 92 -250 l 1,29,-1
 92 -171 l 1,0,-1
EndSplineSet
Validated: 1
EndChar

StartChar: emdash
Encoding: 8212 8212 32
Width: 700
Flags: W
LayerCount: 2
Fore
SplineSet
99 174 m 1,0,-1
 99 255 l 1,1,-1
 601 255 l 1,2,-1
 601 174 l 1,3,-1
 99 174 l 1,0,-1
EndSplineSet
Validated: 1
EndChar
